<svg xmlns="http://www.w3.org/2000/svg" xmlns:xlink="http://www.w3.org/1999/xlink" version="1.1" x="0px" y="0px" viewBox="0 0 100 125" enable-background="new 0 0 100 100" xml:space="preserve"><path d="M67.709,90.408L53.77,85.759V66.215H46.23V85.71l-14.846,4.686c-1.24,0.392-1.929,1.715-1.537,2.956  c0.392,1.242,1.712,1.93,2.956,1.538l17.185-5.424l16.229,5.411C66.465,94.961,66.717,95,66.963,95c0.987,0,1.906-0.625,2.235-1.611  C69.61,92.153,68.943,90.819,67.709,90.408z M86.754,60.561H13.246c-1.041,0-1.885,0.844-1.885,1.885s0.844,1.885,1.885,1.885  h73.508c1.041,0,1.885-0.844,1.885-1.885S87.795,60.561,86.754,60.561z M85.812,5H14.188c-1.555,0-2.827,1.272-2.827,2.827v47.119  c0,1.555,1.272,2.827,2.827,2.827h71.623c1.555,0,2.827-1.272,2.827-2.827V7.827C88.639,6.272,87.366,5,85.812,5z M79.082,40.292  c-0.623,3.171-6.817,8.951-10.917,10.916c-4.318,2.071-8.721-4.07-21.245-6.762c-4.621-0.993-1.852-3.688,0.192-4.588  c0.882-0.237,2.335-0.791,4.991-0.245l1.791,1.79l1.486,0.119l-1.391-1.39c0.037,0.015,0.067,0.022,0.1,0.032  c0,0-3.307-3.295-6.723-6.699c-1.585,0.94-3.427,1.49-5.4,1.49c-5.858,0-10.625-4.767-10.625-10.624  c0-5.859,4.767-10.625,10.625-10.625c5.859,0,10.625,4.766,10.625,10.625c0,1.83-0.466,3.553-1.283,5.058l5.364,5.364l1.484,0.117  l-5.356-5.356c0.314-1.529,1.412-3.456,4.645-2.138l4.371,4.371l1.483,0.117l-5.078-5.078c0.17-0.862,0.659-2.076,2.067-2.355  c0.861-0.17,2.042,0.546,2.62,0.946l3.789,3.79l1.485,0.117l-4.594-4.592c0.49-0.879,1.683-1.849,4.54-0.372  C70.166,25.374,80.386,36.442,79.082,40.292z M45.983,32.086c-0.714-0.711-1.411-1.407-2.065-2.06  c-0.612,0.211-1.268,0.33-1.951,0.33c-3.322,0-6.026-2.703-6.026-6.024c0-3.322,2.704-6.025,6.026-6.025s6.025,2.703,6.025,6.025  c0,0.531-0.076,1.045-0.206,1.535l2.112,2.113c0.514-1.112,0.809-2.346,0.809-3.648c0-4.82-3.921-8.74-8.74-8.74  c-4.82,0-8.74,3.92-8.74,8.74c0,4.818,3.92,8.739,8.74,8.739C43.415,33.071,44.779,32.712,45.983,32.086z M46.668,24.332  c0-2.593-2.109-4.702-4.701-4.702c-2.593,0-4.701,2.109-4.701,4.702c0,2.592,2.108,4.7,4.701,4.7c0.298,0,0.585-0.034,0.867-0.087  c-1.033-1.031-1.883-1.879-2.387-2.383c-2.678-2.677,1.004-6.617,3.834-4.199l2.349,2.348C46.64,24.584,46.668,24.462,46.668,24.332  z"/><text x="0" y="115" fill="#000000" font-size="5px" font-weight="bold" font-family="'Helvetica Neue', Helvetica, Arial-Unicode, Arial, Sans-serif"></text><text x="0" y="120" fill="#000000" font-size="5px" font-weight="bold" font-family="'Helvetica Neue', Helvetica, Arial-Unicode, Arial, Sans-serif"></text></svg>